<svg width="29" height="35" viewBox="0 0 29 35" fill="none" xmlns="http://www.w3.org/2000/svg">
<path d="M15.7598 30.75C16.8209 30.7502 17.6815 31.6107 17.6816 32.6719C17.6815 33.7331 16.8209 34.5935 15.7598 34.5938H12.6846C11.6232 34.5938 10.7628 33.7332 10.7627 32.6719C10.7628 31.6105 11.6232 30.75 12.6846 30.75H15.7598ZM14.2217 0C16.1321 0 17.6814 1.5486 17.6816 3.45898C17.6816 3.51531 17.6794 3.57128 17.6768 3.62695C19.33 4.16615 20.8509 5.08733 22.1035 6.33984C24.1938 8.43019 25.369 11.2655 25.3691 14.2217V26.1377H26.5215C27.5829 26.1377 28.4434 26.9981 28.4434 28.0596C28.4432 29.1209 27.5828 29.9814 26.5215 29.9814H1.92188C0.860535 29.9814 0.000132705 29.1209 0 28.0596C0 26.9981 0.860453 26.1377 1.92188 26.1377H3.0752V14.2217C3.0753 11.2655 4.24957 8.43018 6.33984 6.33984C7.59251 5.08721 9.11324 4.16514 10.7666 3.62598C10.764 3.57064 10.7627 3.51497 10.7627 3.45898C10.7629 1.54873 12.3114 0.000211091 14.2217 0ZM14.2217 6.91895C12.2849 6.919 10.4272 7.68812 9.05762 9.05762C7.68818 10.4271 6.91905 12.285 6.91895 14.2217V26.1377H21.5254V14.2217C21.5253 12.285 20.7552 10.4271 19.3857 9.05762C18.0162 7.6882 16.1585 6.91895 14.2217 6.91895Z" fill="#F4F4F4"/>
</svg>
