<svg width="36" height="28" viewBox="0 0 36 28" fill="none" xmlns="http://www.w3.org/2000/svg">
<path fill-rule="evenodd" clip-rule="evenodd" d="M18 14.7273C21.0649 14.7273 23.8418 15.7418 25.8791 17.1605C27.8149 18.5105 29.4545 20.5167 29.4545 22.6751C29.4545 23.8598 28.9489 24.8416 28.152 25.5715C27.4025 26.2604 26.424 26.7071 25.416 27.0115C23.4016 27.6218 20.7491 27.8182 18 27.8182C15.2509 27.8182 12.5984 27.6218 10.584 27.0115C9.576 26.7071 8.59746 26.2604 7.84636 25.5715C7.05273 24.8433 6.54545 23.8615 6.54545 22.6767C6.54545 20.5184 8.18509 18.5122 10.1209 17.1622C12.1582 15.7418 14.9351 14.7273 18 14.7273ZM18 18C15.6436 18 13.5115 18.7855 11.9945 19.8442C10.3762 20.9733 9.81818 22.122 9.81818 22.6751C9.81818 23.1725 10.3942 23.4835 10.9178 23.6798L11.2533 23.7944L11.5315 23.8795C13.0696 24.3442 15.3278 24.5455 18 24.5455C20.4676 24.5455 22.5802 24.3736 24.1004 23.9825L24.5978 23.8402L24.9087 23.742C25.47 23.5505 26.1818 23.2282 26.1818 22.6751C26.1818 22.122 25.6238 20.9733 24.0055 19.8442C22.4902 18.7871 20.3564 18 18 18ZM29.4545 16.3636C31.1629 16.3636 32.7142 16.9282 33.8613 17.7267C34.9085 18.4582 36 19.674 36 21.1565C36 23.3411 33.8776 24.1233 31.9696 24.3965L31.4787 24.4571L31.0058 24.498L30.78 24.5111C30.9796 23.9465 31.0909 23.3329 31.0909 22.6751C31.09 22.1855 31.0312 21.6978 30.9158 21.222C31.5475 21.1729 32.0662 21.0911 32.4524 20.9749C32.6225 20.9225 32.4687 20.7622 32.2887 20.6231L32.1136 20.4955L31.9893 20.412C31.4981 20.0767 30.9443 19.8441 30.3611 19.728C29.7393 18.4844 28.7836 17.4076 27.7658 16.5485C28.3204 16.426 28.8866 16.364 29.4545 16.3636ZM6.54545 16.3636C7.13127 16.3658 7.69418 16.4275 8.23418 16.5485C7.21636 17.4076 6.26073 18.4844 5.63891 19.728C5.05568 19.8441 4.50189 20.0767 4.01073 20.412L3.80127 20.556C3.59345 20.7065 3.34964 20.916 3.54764 20.9749C3.93382 21.0911 4.45255 21.1745 5.08582 21.222C4.96836 21.6974 4.90902 22.1854 4.90909 22.6751C4.90909 23.3329 5.02036 23.9465 5.22 24.5111L4.76182 24.4784L4.27745 24.4293C2.31055 24.1887 0 23.436 0 21.1565C0 19.6756 1.08982 18.4582 2.13873 17.7267C3.43632 16.8379 4.97261 16.3627 6.54545 16.3636ZM28.6364 6.54545C29.7213 6.54545 30.7619 6.97646 31.5291 7.74365C32.2963 8.51085 32.7273 9.55139 32.7273 10.6364C32.7273 11.7213 32.2963 12.7619 31.5291 13.5291C30.7619 14.2963 29.7213 14.7273 28.6364 14.7273C27.5514 14.7273 26.5108 14.2963 25.7437 13.5291C24.9765 12.7619 24.5455 11.7213 24.5455 10.6364C24.5455 9.55139 24.9765 8.51085 25.7437 7.74365C26.5108 6.97646 27.5514 6.54545 28.6364 6.54545ZM7.36364 6.54545C8.44861 6.54545 9.48915 6.97646 10.2563 7.74365C11.0235 8.51085 11.4545 9.55139 11.4545 10.6364C11.4545 11.7213 11.0235 12.7619 10.2563 13.5291C9.48915 14.2963 8.44861 14.7273 7.36364 14.7273C6.27866 14.7273 5.23812 14.2963 4.47093 13.5291C3.70373 12.7619 3.27273 11.7213 3.27273 10.6364C3.27273 9.55139 3.70373 8.51085 4.47093 7.74365C5.23812 6.97646 6.27866 6.54545 7.36364 6.54545ZM18 0C19.736 0 21.4008 0.689608 22.6283 1.91712C23.8558 3.14463 24.5455 4.80949 24.5455 6.54545C24.5455 8.28142 23.8558 9.94628 22.6283 11.1738C21.4008 12.4013 19.736 13.0909 18 13.0909C16.264 13.0909 14.5992 12.4013 13.3717 11.1738C12.1442 9.94628 11.4545 8.28142 11.4545 6.54545C11.4545 4.80949 12.1442 3.14463 13.3717 1.91712C14.5992 0.689608 16.264 0 18 0ZM28.6364 9.81818C28.4194 9.81818 28.2113 9.90438 28.0578 10.0578C27.9044 10.2113 27.8182 10.4194 27.8182 10.6364C27.8182 10.8534 27.9044 11.0615 28.0578 11.2149C28.2113 11.3683 28.4194 11.4545 28.6364 11.4545C28.8534 11.4545 29.0615 11.3683 29.2149 11.2149C29.3683 11.0615 29.4545 10.8534 29.4545 10.6364C29.4545 10.4194 29.3683 10.2113 29.2149 10.0578C29.0615 9.90438 28.8534 9.81818 28.6364 9.81818ZM7.36364 9.81818C7.14664 9.81818 6.93853 9.90438 6.78509 10.0578C6.63166 10.2113 6.54545 10.4194 6.54545 10.6364C6.54545 10.8534 6.63166 11.0615 6.78509 11.2149C6.93853 11.3683 7.14664 11.4545 7.36364 11.4545C7.58063 11.4545 7.78874 11.3683 7.94218 11.2149C8.09562 11.0615 8.18182 10.8534 8.18182 10.6364C8.18182 10.4194 8.09562 10.2113 7.94218 10.0578C7.78874 9.90438 7.58063 9.81818 7.36364 9.81818ZM18 3.27273C17.132 3.27273 16.2996 3.61753 15.6858 4.23129C15.0721 4.84504 14.7273 5.67747 14.7273 6.54545C14.7273 7.41344 15.0721 8.24587 15.6858 8.85962C16.2996 9.47338 17.132 9.81818 18 9.81818C18.868 9.81818 19.7004 9.47338 20.3142 8.85962C20.9279 8.24587 21.2727 7.41344 21.2727 6.54545C21.2727 5.67747 20.9279 4.84504 20.3142 4.23129C19.7004 3.61753 18.868 3.27273 18 3.27273Z" fill="white"/>
</svg>
