<svg width="32" height="35" viewBox="0 0 32 35" fill="none" xmlns="http://www.w3.org/2000/svg">
<path d="M3.92857 30.4464H9.82143V20.625C9.82143 20.0685 10.01 19.6023 10.3871 19.2264C10.7643 18.8506 11.2305 18.662 11.7857 18.6607H19.6429C20.1994 18.6607 20.6662 18.8493 21.0434 19.2264C21.4205 19.6036 21.6084 20.0698 21.6071 20.625V30.4464H27.5V12.7679L15.7143 3.92857L3.92857 12.7679V30.4464ZM0 30.4464V12.7679C0 12.1458 0.139464 11.5565 0.418392 11C0.697321 10.4435 1.08167 9.98512 1.57143 9.625L13.3571 0.785714C14.0446 0.261905 14.8304 0 15.7143 0C16.5982 0 17.3839 0.261905 18.0714 0.785714L29.8571 9.625C30.3482 9.98512 30.7332 10.4435 31.0121 11C31.2911 11.5565 31.4299 12.1458 31.4286 12.7679V30.4464C31.4286 31.5268 31.0436 32.452 30.2736 33.222C29.5036 33.992 28.579 34.3763 27.5 34.375H19.6429C19.0863 34.375 18.6201 34.1864 18.2443 33.8093C17.8685 33.4321 17.6799 32.966 17.6786 32.4107V22.5893H13.75V32.4107C13.75 32.9673 13.5614 33.4341 13.1843 33.8112C12.8071 34.1884 12.341 34.3763 11.7857 34.375H3.92857C2.84821 34.375 1.92369 33.9907 1.155 33.222C0.386309 32.4533 0.00130952 31.5281 0 30.4464Z" fill="url(#paint0_linear_33_2492)"/>
<defs>
<linearGradient id="paint0_linear_33_2492" x1="16" y1="0" x2="16" y2="34" gradientUnits="userSpaceOnUse">
<stop stop-color="#59FFB6"/>
<stop offset="1" stop-color="#DC4FFF"/>
</linearGradient>
</defs>
</svg>
