<svg xmlns="http://www.w3.org/2000/svg" width="1024" height="1024" viewBox="0 0 1024 1024">
<style>
  .logo-main { fill: #770524; }
  .logo-shadow { fill: #5a0419; opacity: 0.6; }
  @media (prefers-color-scheme: dark) {
    .logo-main { fill: #E4BB7A; }
    .logo-shadow { fill: #d4a865; opacity: 0.7; }
  }
</style>
<g>
<path class="logo-main" d="M 409.83 758.75 C404.84,761.46 402.59,761.55 398.07,759.25 C390.84,755.56 390.76,755.20 389.79,724.28 C389.31,709.00 389.20,693.83 389.53,690.56 C389.87,687.30 389.82,678.62 389.43,671.27 L 388.73 657.91 L 385.30 656.48 C383.42,655.70 380.45,654.03 378.69,652.78 C374.88,650.06 375.39,650.09 320.00,649.59 C271.93,649.16 264.76,648.16 250.21,639.83 C239.79,633.88 229.46,620.53 227.11,609.99 C226.55,607.51 225.46,603.91 224.68,601.99 C223.86,599.98 223.03,593.27 222.72,586.14 C222.42,579.34 221.80,573.41 221.34,572.96 C220.88,572.50 211.27,571.62 200.00,571.00 C170.02,569.33 168.90,568.49 168.42,547.15 C168.26,540.19 167.60,528.20 166.95,520.50 C166.30,512.80 165.82,505.38 165.89,504.00 C165.96,502.62 166.12,487.55 166.26,470.50 C166.39,453.45 167.08,433.20 167.78,425.50 C168.49,417.80 169.53,406.55 170.09,400.50 C171.75,382.69 176.66,374.93 191.06,367.36 L 196.50 364.50 L 230.85 364.19 C249.74,364.02 268.86,364.33 273.35,364.87 C278.69,365.52 281.84,365.53 282.50,364.88 C283.05,364.34 283.55,361.34 283.61,358.20 C283.88,344.36 286.25,319.54 287.87,313.71 C293.26,294.26 308.37,279.57 328.37,274.34 L 337.50 271.96 L 435.82 272.08 C489.89,272.14 534.26,272.04 534.40,271.85 C534.55,271.66 536.06,269.45 537.75,266.95 C545.56,255.38 555.59,247.74 570.00,242.37 L 577.50 239.58 L 648.20 239.23 C691.08,239.02 722.37,239.27 727.70,239.87 C741.30,241.41 754.97,247.42 763.18,255.46 C769.13,261.28 774.59,269.23 775.58,273.50 C775.96,275.15 776.59,276.95 776.98,277.50 C779.65,281.27 780.50,289.60 780.50,312.00 L 780.50 335.50 L 777.20 342.98 C775.38,347.09 773.24,351.18 772.45,352.06 C770.21,354.54 770.69,356.83 774.74,362.90 C778.24,368.14 781.78,375.52 784.16,382.50 C784.72,384.15 785.42,392.31 785.72,400.63 L 786.26 415.77 L 793.38 416.46 C806.16,417.70 820.05,422.42 827.38,428.02 C837.90,436.06 845.64,446.67 849.60,458.50 C852.26,466.42 852.29,466.80 852.39,496.00 C852.51,527.31 852.07,530.90 846.98,541.01 C844.97,544.97 831.91,558.16 827.05,561.12 C822.25,564.04 814.17,566.98 808.15,568.01 C800.41,569.34 800.00,569.91 800.00,579.45 C800.00,592.33 794.42,608.91 786.92,618.34 C779.37,627.82 771.73,633.02 758.97,637.35 C752.70,639.48 748.20,640.10 731.97,641.07 C721.26,641.71 703.85,642.30 693.29,642.37 C676.64,642.48 673.84,642.73 672.37,644.20 C670.24,646.33 669.31,662.52 669.06,701.83 C668.87,732.41 668.49,734.44 662.34,737.37 C654.19,741.26 649.50,738.84 630.50,720.90 C627.20,717.78 618.65,709.73 611.50,703.01 C604.35,696.29 590.25,682.31 580.16,671.94 C570.08,661.57 561.04,652.83 560.08,652.52 C559.11,652.22 555.44,653.05 551.91,654.37 C548.39,655.69 543.62,657.08 541.33,657.46 C538.91,657.86 536.84,658.85 536.40,659.82 C535.98,660.75 535.38,675.22 535.07,692.00 C534.65,714.47 534.15,723.11 533.19,724.80 C529.80,730.75 518.63,733.05 512.58,729.06 C509.27,726.88 495.77,714.60 486.40,705.25 C482.95,701.81 479.52,699.00 478.78,699.00 C477.17,699.00 468.03,706.85 459.00,715.98 C455.42,719.59 451.19,723.39 449.58,724.41 C446.48,726.38 439.61,732.49 423.74,747.35 C418.37,752.38 412.11,757.51 409.83,758.75 ZM 403.68 749.34 C405.20,750.86 409.00,748.24 418.50,739.10 C432.16,725.97 484.79,674.21 499.36,659.57 L 511.24 647.64 L 527.42 647.46 C536.35,647.36 544.46,646.81 545.54,646.23 C546.62,645.66 549.41,644.68 551.74,644.06 C554.66,643.28 558.45,640.72 563.92,635.83 C577.40,623.78 580.57,614.04 579.84,586.93 C579.61,578.44 579.08,570.94 578.67,570.27 C578.08,569.31 558.08,569.04 488.70,569.03 C439.64,569.02 384.88,568.72 367.00,568.36 C349.12,568.01 312.11,568.06 284.75,568.48 L 235.00 569.24 L 235.00 582.91 C235.00,603.61 237.71,611.56 248.72,623.13 C254.37,629.07 262.55,634.03 269.91,635.99 C273.02,636.82 289.74,637.15 326.99,637.11 L 379.67 637.07 L 385.08 640.44 C388.06,642.30 393.02,644.55 396.10,645.44 L 401.71 647.06 L 402.35 655.28 C402.70,659.80 402.99,682.66 402.99,706.08 C403.00,729.50 403.30,748.97 403.68,749.34 ZM 624.54 418.63 L 627.08 421.17 L 630.79 418.43 C635.83,414.71 641.00,409.80 641.00,408.74 C641.00,408.26 642.47,406.43 644.26,404.68 C647.93,401.09 659.87,387.87 668.57,377.75 L 674.38 371.00 L 700.94 370.91 C738.43,370.79 739.79,370.61 749.47,364.75 C760.42,358.13 768.17,349.78 771.61,340.90 C774.21,334.20 774.86,290.50 772.49,282.27 C767.19,263.93 752.04,249.85 734.52,247.00 C731.31,246.48 696.66,246.08 656.14,246.10 L 651.71 246.10 C585.60,246.13 573.53,246.13 564.36,251.29 C562.11,252.55 560.04,254.13 557.39,256.08 C550.47,261.19 543.61,269.43 540.30,276.59 C537.66,282.32 537.56,283.14 537.20,303.45 C536.95,316.97 537.24,326.55 538.00,330.45 C540.48,343.23 551.29,357.68 563.08,363.96 C572.64,369.06 578.35,370.00 599.63,370.00 C610.19,370.00 619.55,370.27 620.42,370.61 C621.80,371.14 622.00,374.11 622.00,393.65 L 622.00 416.09 ZM 652.21 725.75 C654.75,728.09 657.33,730.00 657.94,730.00 C660.93,730.00 661.23,724.31 660.46,681.50 C659.70,638.52 659.71,629.95 660.56,629.11 C660.81,628.86 663.87,629.18 667.37,629.83 C671.48,630.59 686.60,631.00 710.18,631.00 C746.21,631.00 756.81,630.27 760.00,627.55 C760.83,626.84 762.85,625.95 764.50,625.55 C766.15,625.16 769.64,623.20 772.27,621.20 C777.43,617.26 786.68,606.33 786.21,604.73 C786.05,604.19 786.53,603.02 787.29,602.12 C789.80,599.14 791.00,592.37 791.00,581.13 L 791.00 570.00 L 700.75 569.90 C651.11,569.84 605.66,569.62 599.75,569.40 L 589.00 569.00 L 588.86 580.75 C588.57,605.63 588.21,609.54 585.46,617.66 C582.61,626.08 579.92,630.82 573.85,638.14 C571.73,640.69 570.00,643.26 570.00,643.85 C570.00,644.84 593.18,668.00 621.89,695.70 C636.25,709.54 636.01,709.30 642.36,716.00 C645.23,719.03 649.66,723.41 652.21,725.75 ZM 202.00 543.27 C210.64,544.28 224.90,543.97 225.69,542.75 C226.14,542.06 226.50,528.00 226.50,511.50 L 226.50 481.50 L 237.43 481.77 C243.43,481.92 248.93,482.52 249.63,483.11 C250.33,483.69 253.00,488.07 255.56,492.84 C258.12,497.60 265.39,511.04 271.72,522.70 L 283.23 543.90 L 299.09 543.89 C307.82,543.89 315.15,543.56 315.39,543.17 C315.63,542.78 314.73,540.67 313.38,538.48 C312.03,536.29 305.70,525.28 299.32,514.00 C292.93,502.73 286.19,491.14 284.34,488.25 C282.49,485.36 281.22,483.00 281.52,483.00 C281.81,483.00 281.36,481.66 280.51,480.02 L 278.97 477.05 L 283.74 474.63 C290.15,471.38 299.48,461.39 302.73,454.28 C305.05,449.23 305.44,446.91 305.79,435.90 C306.23,422.06 304.76,413.63 300.77,407.08 C297.16,401.17 288.00,392.16 284.39,390.96 C282.52,390.35 281.00,389.43 281.00,388.92 C281.00,388.42 280.19,388.00 279.20,388.00 C278.21,388.00 276.94,387.54 276.39,386.99 C273.45,384.05 261.30,383.03 229.00,383.02 L 196.50 383.00 L 196.62 462.07 C196.69,505.91 197.14,541.53 197.62,542.00 C198.11,542.47 200.07,543.04 202.00,543.27 ZM 473.00 546.26 C476.02,546.46 479.04,546.71 479.69,546.82 C480.35,546.92 481.18,546.52 481.54,545.94 C481.90,545.35 483.39,544.97 484.85,545.10 C488.37,545.40 495.67,543.31 500.00,540.76 C501.92,539.62 505.85,536.43 508.73,533.66 C511.60,530.89 514.26,528.93 514.65,529.31 C515.03,529.69 515.60,533.04 515.92,536.75 L 516.50 543.50 L 540.50 543.50 L 540.50 491.50 C540.50,462.90 540.28,426.90 540.00,411.50 L 539.50 383.50 L 511.50 382.95 L 511.78 413.14 C511.93,429.75 511.70,443.70 511.25,444.15 C510.81,444.59 508.43,443.10 505.97,440.83 C497.39,432.93 486.12,429.40 472.22,430.27 C465.22,430.70 462.66,431.40 455.72,434.75 C451.20,436.94 445.75,440.44 443.61,442.55 C430.17,455.76 423.87,477.63 427.45,498.66 C429.91,513.11 433.78,521.49 442.07,530.36 C446.77,535.40 450.52,538.41 453.92,539.87 C456.65,541.04 459.16,542.46 459.50,543.00 C459.84,543.55 461.35,544.00 462.86,544.00 C464.37,544.00 466.03,544.42 466.55,544.94 C467.07,545.46 469.98,546.05 473.00,546.26 ZM 626.00 545.58 C640.48,549.58 657.12,545.25 666.30,535.09 C670.52,530.42 671.24,530.91 671.99,539.00 L 672.50 544.50 L 697.50 544.50 L 697.19 506.50 C696.95,476.20 696.57,467.40 695.36,463.05 C689.48,442.08 676.19,432.46 651.50,431.30 C643.34,430.92 638.72,431.21 633.60,432.41 C625.60,434.30 616.04,439.12 611.72,443.43 C607.83,447.32 602.00,459.50 602.00,463.72 L 602.00 467.00 L 629.91 467.00 L 631.58 463.47 C634.04,458.28 639.97,455.19 648.00,454.89 C661.15,454.42 669.93,462.47 668.83,474.00 L 668.50 477.50 L 647.00 478.04 C627.39,478.54 624.99,478.80 619.67,480.96 C611.94,484.11 604.88,490.58 601.92,497.22 C599.99,501.55 599.57,504.21 599.56,512.00 C599.55,523.57 601.38,528.28 608.74,535.64 C614.00,540.91 618.53,543.51 626.00,545.58 ZM 343.29 544.55 C345.60,545.27 351.22,545.90 355.77,545.93 C365.84,546.01 373.48,543.28 382.12,536.49 C385.26,534.02 388.30,532.00 388.87,532.00 C389.43,532.00 390.04,534.59 390.20,537.75 L 390.50 543.50 L 415.50 543.50 L 415.23 505.00 C415.06,481.41 414.52,464.56 413.84,461.50 C410.91,448.34 401.31,437.91 388.24,433.70 C372.57,428.64 354.81,429.28 341.50,435.37 C330.42,440.44 322.02,451.59 321.67,461.68 L 321.50 466.50 L 349.37 466.50 L 350.19 463.33 C351.11,459.78 356.18,455.00 359.02,455.00 C360.04,455.00 361.17,454.53 361.53,453.95 C362.65,452.14 372.14,453.22 376.51,455.66 C383.89,459.79 387.40,465.56 386.82,472.62 L 386.50 476.50 L 366.00 477.08 C354.73,477.40 344.15,478.12 342.49,478.69 C338.26,480.14 329.89,484.59 327.41,486.71 C319.26,493.68 315.64,510.46 319.62,522.79 C322.58,531.94 332.69,541.24 343.29,544.55 ZM 717.91 544.28 C717.96,544.71 724.19,544.93 731.75,544.78 L 745.50 544.50 L 746.00 508.50 C746.35,483.07 746.86,471.77 747.72,470.00 C749.98,465.39 754.46,461.31 759.25,459.51 C765.47,457.17 776.92,457.81 780.84,460.71 C784.33,463.30 787.73,468.38 788.98,472.88 C789.57,474.98 789.99,490.90 789.99,510.78 L 790.00 545.05 L 818.09 544.50 L 818.03 506.27 C817.99,485.24 817.53,465.78 817.00,463.01 C815.34,454.27 812.20,448.50 805.66,442.24 C797.22,434.16 792.58,432.50 778.50,432.51 C768.32,432.53 767.01,432.76 760.96,435.61 C757.37,437.30 752.06,440.78 749.18,443.34 C746.29,445.90 743.53,448.00 743.03,448.00 C742.22,448.00 741.61,445.01 740.76,437.00 C740.50,434.51 740.45,434.50 729.00,434.22 L 717.50 433.94 L 717.66 488.72 C717.75,518.85 717.86,543.85 717.91,544.28 ZM 557.87 503.25 L 558.00 544.00 L 571.38 544.00 C581.22,544.00 585.04,543.65 585.85,542.68 C586.61,541.77 586.83,530.31 586.58,504.93 C586.38,484.89 586.17,460.51 586.11,450.75 L 586.00 433.00 L 558.23 433.00 L 557.80 435.92 C557.56,437.53 557.45,444.17 557.55,450.67 C557.65,457.18 557.79,480.84 557.87,503.25 ZM 495.93 518.04 C491.45,520.32 481.29,521.38 476.23,520.08 C468.04,517.99 460.35,509.53 457.50,499.50 C454.50,488.92 455.96,473.62 460.50,468.04 C469.93,456.46 471.83,455.47 484.50,455.54 C493.97,455.59 499.95,458.04 505.40,464.10 C510.98,470.31 512.51,475.70 512.46,489.00 C512.43,498.37 512.14,500.05 509.78,504.59 C506.84,510.24 502.00,514.94 495.93,518.04 ZM 262.54 455.63 C257.96,457.77 256.13,457.98 242.38,457.99 L 227.26 458.00 L 226.64 454.25 C226.30,452.19 226.02,441.16 226.01,429.75 L 226.00 409.00 L 242.25 409.04 C253.25,409.07 259.72,409.52 262.28,410.44 C274.22,414.70 279.47,424.39 276.99,437.57 C275.50,445.44 270.20,452.07 262.54,455.63 ZM 520.50 720.97 C521.60,721.47 522.58,721.90 522.68,721.94 C522.78,721.97 523.56,721.29 524.43,720.43 C525.79,719.07 526.00,714.76 526.00,688.43 L 526.00 658.00 L 514.50 658.09 L 499.51 672.66 L 484.52 687.23 L 501.51 703.65 C510.85,712.68 519.40,720.47 520.50,720.97 ZM 564.35 415.91 C577.88,419.83 590.90,408.65 588.39,395.28 C587.02,387.94 577.42,381.02 568.59,381.01 C564.11,381.00 557.29,385.51 555.00,390.00 C552.87,394.17 552.38,401.24 553.93,405.32 C555.45,409.32 560.97,414.93 564.35,415.91 ZM 656.69 522.38 C651.95,524.33 644.46,525.14 640.50,524.12 C629.94,521.40 624.76,511.35 630.08,503.89 C633.81,498.64 636.37,498.00 653.45,498.00 L 669.00 498.00 L 669.00 504.05 C669.00,512.99 664.99,518.97 656.69,522.38 ZM 374.16 521.46 C368.09,523.53 359.36,523.43 355.02,521.25 C349.51,518.48 346.85,513.64 347.20,507.04 C347.50,501.60 347.56,501.49 352.00,499.26 C356.16,497.16 357.63,497.01 371.50,497.25 L 386.50 497.50 L 386.50 504.70 C386.50,511.73 386.41,512.00 382.58,515.92 C380.38,518.17 376.69,520.60 374.16,521.46 Z"/>
<path class="logo-shadow" d="M 750.15 442.51 C748.01,444.40 746.36,446.33 745.42,448.15 C744.61,449.72 743.56,451.00 743.07,451.00 C742.59,451.00 741.82,447.29 741.35,442.75 L 740.71 436.51 C740.73,436.66 740.75,436.83 740.76,437.00 C741.61,445.01 742.22,448.00 743.03,448.00 C743.53,448.00 746.29,445.90 749.18,443.34 C749.48,443.07 749.81,442.80 750.15,442.51 ZM 382.64 536.08 C384.26,534.71 385.49,533.38 386.11,532.25 C388.44,527.98 389.89,529.58 390.20,536.75 L 390.50 543.50 L 390.20 537.75 C390.04,534.59 389.43,532.00 388.87,532.00 C388.33,532.00 385.59,533.80 382.64,536.08 ZM 369.41 543.81 C369.65,543.72 369.90,543.62 370.15,543.52 C373.09,542.32 376.08,540.71 378.70,539.00 C375.58,541.11 372.55,542.70 369.41,543.81 Z"/>
</g>
</svg>
