<svg width="31" height="35" viewBox="0 0 31 35" fill="none" xmlns="http://www.w3.org/2000/svg">
<path fill-rule="evenodd" clip-rule="evenodd" d="M26.2603 4.0182L4.60752 11.8474L11.8211 16.0225L18.1818 9.66011C18.5045 9.33767 18.942 9.15662 19.3981 9.15678C19.8543 9.15695 20.2917 9.3383 20.6141 9.66097C20.9366 9.98363 21.1176 10.4212 21.1174 10.8773C21.1173 11.3335 20.9359 11.7709 20.6133 12.0933L14.2509 18.4557L18.4294 25.6676L26.2603 4.0182ZM26.8157 0.159491C28.8706 -0.585083 30.8619 1.40618 30.1173 3.46106L21.0346 28.5754C20.2883 30.6354 17.475 30.8865 16.3762 28.9898L10.8444 19.4324L1.28703 13.9006C-0.609652 12.8018 -0.358594 9.98854 1.70145 9.24225L26.8157 0.159491Z" fill="white"/>
</svg>
