<svg width="34" height="34" viewBox="0 0 34 34" fill="none" xmlns="http://www.w3.org/2000/svg">
<path fill-rule="evenodd" clip-rule="evenodd" d="M23.182 12.3637C23.182 14.0032 22.5307 15.5756 21.3714 16.7349C20.2121 17.8942 18.6397 18.5455 17.0002 18.5455C15.3607 18.5455 13.7883 17.8942 12.629 16.7349C11.4697 15.5756 10.8184 14.0032 10.8184 12.3637C10.8184 10.7242 11.4697 9.15181 12.629 7.9925C13.7883 6.83318 15.3607 6.18188 17.0002 6.18188C18.6397 6.18188 20.2121 6.83318 21.3714 7.9925C22.5307 9.15181 23.182 10.7242 23.182 12.3637ZM20.0911 12.3637C20.0911 13.1835 19.7654 13.9696 19.1858 14.5493C18.6061 15.129 17.8199 15.4546 17.0002 15.4546C16.1804 15.4546 15.3942 15.129 14.8146 14.5493C14.2349 13.9696 13.9093 13.1835 13.9093 12.3637C13.9093 11.5439 14.2349 10.7578 14.8146 10.1781C15.3942 9.59844 16.1804 9.27279 17.0002 9.27279C17.8199 9.27279 18.6061 9.59844 19.1858 10.1781C19.7654 10.7578 20.0911 11.5439 20.0911 12.3637Z" fill="white"/>
<path fill-rule="evenodd" clip-rule="evenodd" d="M17 0C7.61136 0 0 7.61136 0 17C0 26.3886 7.61136 34 17 34C26.3886 34 34 26.3886 34 17C34 7.61136 26.3886 0 17 0ZM3.09091 17C3.09091 20.23 4.19282 23.2035 6.03964 25.5649C7.33696 23.862 9.01024 22.4819 10.9289 21.5324C12.8476 20.5829 14.9597 20.0895 17.1005 20.0909C19.2137 20.0884 21.2996 20.5686 23.199 21.4948C25.0985 22.4209 26.7613 23.7686 28.0608 25.4351C29.3999 23.6788 30.3015 21.629 30.691 19.4551C31.0806 17.2812 30.9468 15.0458 30.3009 12.9339C29.655 10.8219 28.5155 8.89416 26.9767 7.31006C25.4378 5.72595 23.5438 4.53106 21.4515 3.82424C19.3592 3.11743 17.1286 2.91901 14.9443 3.24541C12.7601 3.57181 10.6849 4.41365 8.89064 5.70126C7.09634 6.98888 5.63444 8.68525 4.6259 10.65C3.61736 12.6148 3.09119 14.7915 3.09091 17ZM17 30.9091C13.8069 30.9143 10.7102 29.8158 8.23418 27.7996C9.23071 26.3726 10.5573 25.2075 12.101 24.4034C13.6448 23.5994 15.3599 23.1803 17.1005 23.1818C18.8193 23.1803 20.5136 23.589 22.0428 24.3738C23.5719 25.1587 24.8917 26.2971 25.8925 27.6945C23.3974 29.7763 20.2495 30.9142 17 30.9091Z" fill="white"/>
</svg>
