<svg width="175" height="42" viewBox="0 0 175 42" fill="none" xmlns="http://www.w3.org/2000/svg">
<path d="M153.969 13.7407L161.018 0.439941H163.438C166.791 0.440333 168.939 4.00883 167.369 6.97119L158.863 23.02L160.829 26.73L167.878 13.4292H170.299C173.651 13.4296 175.798 16.998 174.229 19.9604L164.719 37.9067C164.541 38.2423 164.328 38.5401 164.093 38.8042C163.323 40.0214 161.974 40.8744 160.336 40.8745H157.915L150.866 27.5737L143.817 40.8745H141.314C137.962 40.8742 135.815 37.3057 137.385 34.3433L145.93 18.2163L144.006 14.5854L136.958 27.8853H134.454C131.102 27.8849 128.954 24.3173 130.523 21.355L140.034 3.40869C140.212 3.07225 140.425 2.77296 140.661 2.5083C141.431 1.29209 142.78 0.439941 144.418 0.439941H146.92L153.969 13.7407Z" fill="url(#paint0_linear_33_2357)"/>
<path d="M6.752 30.112C6.752 31.5413 6.00533 32.256 4.512 32.256C3.78667 32.256 3.21067 32.0747 2.784 31.712C2.35733 31.3493 2.144 30.816 2.144 30.112V16.448C2.144 14.0587 2.77333 12.2667 4.032 11.072C5.29067 9.856 7.40267 9.248 10.368 9.248C12.5653 9.248 14.2827 9.83467 15.52 11.008C16.7787 12.1813 17.408 14.0693 17.408 16.672C17.408 18.9333 16.8107 20.6613 15.616 21.856C14.4427 23.0507 12.7787 23.648 10.624 23.648C9.408 23.648 8.52267 23.744 7.968 23.936C7.43467 24.1067 7.09333 24.4373 6.944 24.928C6.816 25.3973 6.752 26.0907 6.752 27.008V30.112ZM6.464 20.864C6.72 20.6507 6.96533 20.4693 7.2 20.32C7.43467 20.1493 7.744 20.0213 8.128 19.936C8.53333 19.8293 9.06667 19.776 9.728 19.776C10.6453 19.776 11.3707 19.7013 11.904 19.552C12.4373 19.3813 12.8107 19.072 13.024 18.624C13.2587 18.176 13.376 17.5253 13.376 16.672C13.376 15.5413 13.2373 14.72 12.96 14.208C12.704 13.6747 12.3307 13.3333 11.84 13.184C11.3707 13.0133 10.7947 12.928 10.112 12.928C8.87467 12.928 8 13.152 7.488 13.6C6.99733 14.048 6.752 14.8267 6.752 15.936C6.752 16.7253 6.73067 17.5893 6.688 18.528C6.64533 19.4667 6.57067 20.2453 6.464 20.864ZM22.5745 32.192C21.8492 32.192 21.2732 32.032 20.8465 31.712C20.4198 31.3707 20.2065 30.8907 20.2065 30.272V16.448C20.2065 13.9733 20.8572 12.16 22.1585 11.008C23.4812 9.83467 25.5398 9.248 28.3345 9.248C30.6172 9.248 32.3558 9.824 33.5505 10.976C34.7665 12.1067 35.3745 13.7493 35.3745 15.904C35.3745 16.6507 35.3532 17.376 35.3105 18.08C35.2678 18.7627 35.2038 19.2427 35.1185 19.52C34.7985 20.6933 34.2118 21.5893 33.3585 22.208C34.5105 23.168 35.0865 24.2773 35.0865 25.536V30.272C35.0865 31.5947 34.3505 32.256 32.8785 32.256C32.1532 32.256 31.5772 32.096 31.1505 31.776C30.7238 31.4347 30.5105 30.9333 30.5105 30.272V26.048C30.5105 24.896 30.3292 24.0853 29.9665 23.616C29.6252 23.1467 28.9212 22.912 27.8545 22.912C26.7025 22.912 25.9025 23.168 25.4545 23.68C25.0278 24.1707 24.8145 25.088 24.8145 26.432V30.272C24.8145 31.552 24.0678 32.192 22.5745 32.192ZM24.5585 20.288C25.0918 19.84 25.5612 19.552 25.9665 19.424C26.3932 19.2747 27.0012 19.2 27.7905 19.2C28.8572 19.2 29.6358 19.1467 30.1265 19.04C30.6385 18.9333 30.9692 18.7093 31.1185 18.368C31.2678 18.0267 31.3425 17.4933 31.3425 16.768C31.3425 15.3173 31.1185 14.3147 30.6705 13.76C30.2438 13.184 29.4652 12.896 28.3345 12.896C27.0758 12.896 26.1798 13.184 25.6465 13.76C25.1345 14.336 24.8785 15.3387 24.8785 16.768C24.8785 17.472 24.8465 18.1013 24.7825 18.656C24.7398 19.1893 24.6652 19.7333 24.5585 20.288ZM47.4588 32.256C45.6028 32.256 44.0241 31.8933 42.7228 31.168C41.4214 30.4213 40.4294 29.2053 39.7468 27.52C39.0854 25.8347 38.7548 23.552 38.7548 20.672C38.7548 17.792 39.0854 15.52 39.7468 13.856C40.4294 12.192 41.4214 11.008 42.7228 10.304C44.0241 9.6 45.6028 9.248 47.4588 9.248C49.3361 9.248 50.9148 9.6 52.1948 10.304C53.4961 11.008 54.4774 12.192 55.1388 13.856C55.8214 15.52 56.1628 17.792 56.1628 20.672C56.1628 23.552 55.8214 25.8347 55.1388 27.52C54.4774 29.2053 53.4961 30.4213 52.1948 31.168C50.9148 31.8933 49.3361 32.256 47.4588 32.256ZM47.4588 28.032C48.3121 28.032 49.0374 27.8293 49.6348 27.424C50.2534 27.0187 50.7228 26.2827 51.0428 25.216C51.3841 24.1493 51.5548 22.6347 51.5548 20.672C51.5548 18.688 51.3841 17.184 51.0428 16.16C50.7228 15.1147 50.2534 14.4107 49.6348 14.048C49.0374 13.664 48.3121 13.472 47.4588 13.472C46.6268 13.472 45.9014 13.664 45.2828 14.048C44.6641 14.4107 44.1841 15.1147 43.8428 16.16C43.5228 17.184 43.3628 18.688 43.3628 20.672C43.3628 22.6347 43.5228 24.1493 43.8428 25.216C44.1841 26.2827 44.6641 27.0187 45.2828 27.424C45.9014 27.8293 46.6268 28.032 47.4588 28.032ZM61.2868 32.256C60.4974 32.256 59.7721 32.1813 59.1108 32.032C58.4494 31.904 57.8948 31.744 57.4468 31.552C56.5508 31.168 56.1028 30.56 56.1028 29.728C56.1028 28.448 56.8708 27.808 58.4068 27.808C58.8761 27.808 59.3668 27.8507 59.8788 27.936C60.4121 28 60.8814 28.032 61.2868 28.032C61.9694 28.032 62.4388 27.8293 62.6948 27.424C62.9721 27.0187 63.1108 26.2933 63.1108 25.248V11.744C63.1108 10.08 63.8788 9.248 65.4148 9.248C66.9508 9.248 67.7188 10.08 67.7188 11.744V25.952C67.7188 27.9787 67.1641 29.536 66.0548 30.624C64.9668 31.712 63.3774 32.256 61.2868 32.256ZM73.4628 32C73.0574 32 72.7161 31.84 72.4388 31.52C72.1614 31.2 72.0228 30.7947 72.0228 30.304V15.328C72.0228 13.3227 72.6414 11.872 73.8788 10.976C75.1161 10.0587 77.1108 9.6 79.8628 9.6H83.8628C84.5668 9.6 85.1108 9.792 85.4948 10.176C85.9001 10.5387 86.1028 11.0613 86.1028 11.744C86.1028 12.4053 85.9001 12.9173 85.4948 13.28C85.1108 13.6427 84.5668 13.824 83.8628 13.824H79.6388C78.5721 13.824 77.8041 14.0373 77.3348 14.464C76.8654 14.8907 76.6308 15.584 76.6308 16.544C76.6308 16.8853 76.6094 17.312 76.5668 17.824C76.5241 18.3147 76.4601 18.88 76.3748 19.52C76.7374 19.2213 77.1961 18.9867 77.7508 18.816C78.3054 18.624 78.8494 18.528 79.3828 18.528H82.5508C83.1481 18.528 83.6068 18.7093 83.9268 19.072C84.2681 19.4347 84.4388 19.936 84.4388 20.576C84.4388 21.216 84.2681 21.728 83.9268 22.112C83.5854 22.496 83.1268 22.688 82.5508 22.688H79.1267C78.1454 22.688 77.4841 22.8907 77.1428 23.296C76.8014 23.68 76.6308 24.4693 76.6308 25.664V27.776H83.8628C84.6521 27.776 85.2174 27.9467 85.5588 28.288C85.9214 28.6293 86.1028 29.184 86.1028 29.952C86.1028 30.6773 85.9321 31.2 85.5908 31.52C85.2494 31.84 84.6734 32 83.8628 32H73.4628ZM93.1173 20.896C93.1173 23.4347 93.4266 25.2587 94.0453 26.368C94.6639 27.456 95.5813 28 96.7973 28C97.5653 28 98.2373 27.9467 98.8133 27.84C99.3893 27.712 99.9119 27.648 100.381 27.648C101.235 27.648 101.853 27.8293 102.237 28.192C102.621 28.5333 102.813 28.9813 102.813 29.536C102.813 30.2613 102.547 30.816 102.013 31.2C101.501 31.584 100.84 31.8507 100.029 32C99.2399 32.1493 98.4293 32.224 97.5973 32.224C95.2933 32.224 93.4586 31.7973 92.0933 30.944C90.7493 30.0907 89.7786 28.832 89.1813 27.168C88.6053 25.4827 88.3173 23.392 88.3173 20.896C88.3173 18.4 88.6053 16.288 89.1813 14.56C89.7786 12.8107 90.7493 11.488 92.0933 10.592C93.4586 9.696 95.2933 9.248 97.5973 9.248C98.4293 9.248 99.2399 9.32267 100.029 9.472C100.84 9.62133 101.501 9.888 102.013 10.272C102.547 10.656 102.813 11.2107 102.813 11.936C102.813 12.4693 102.621 12.9173 102.237 13.28C101.853 13.6427 101.235 13.824 100.381 13.824C99.9119 13.824 99.3893 13.7707 98.8133 13.664C98.2373 13.536 97.5653 13.472 96.7973 13.472C95.3039 13.472 94.3119 14.08 93.8213 15.296C93.3519 16.4907 93.1173 18.3573 93.1173 20.896ZM112.427 32.256C111.894 32.256 111.35 32.1387 110.795 31.904C110.262 31.648 109.995 31.2427 109.995 30.688V15.712C109.995 15.0293 110.166 14.56 110.507 14.304C110.849 14.048 111.126 13.888 111.339 13.824H105.163C104.651 13.824 104.267 13.6 104.011 13.152C103.777 12.6827 103.659 12.2027 103.659 11.712C103.659 11.1787 103.787 10.6987 104.043 10.272C104.299 9.824 104.673 9.6 105.163 9.6H119.467C119.958 9.6 120.331 9.824 120.587 10.272C120.843 10.6987 120.971 11.1787 120.971 11.712C120.971 12.2027 120.843 12.6827 120.587 13.152C120.353 13.6 119.979 13.824 119.467 13.824H114.603V30.688C114.603 31.2213 114.379 31.616 113.931 31.872C113.505 32.128 113.003 32.256 112.427 32.256Z" fill="white"/>
<defs>
<linearGradient id="paint0_linear_33_2357" x1="152.376" y1="0.439941" x2="152.376" y2="40.8745" gradientUnits="userSpaceOnUse">
<stop stop-color="#59FFB6"/>
<stop offset="0.47" stop-color="#AAB2FF"/>
<stop offset="1" stop-color="#DC4FFF"/>
</linearGradient>
</defs>
</svg>
