<svg width="28" height="35" viewBox="0 0 28 35" fill="none" xmlns="http://www.w3.org/2000/svg">
<path d="M8.53155 13.8729V6.93647C8.53155 5.55672 9.07965 4.23349 10.0553 3.25786C11.0309 2.28223 12.3541 1.73413 13.7339 1.73413C15.1136 1.73413 16.4369 2.28223 17.4125 3.25786C18.3881 4.23349 18.9362 5.55672 18.9362 6.93647V13.8729M24.1386 10.4047L25.7287 31.0805C25.7471 31.3188 25.7161 31.5583 25.6376 31.784C25.559 32.0097 25.4347 32.2167 25.2723 32.3921C25.11 32.5674 24.9132 32.7073 24.6942 32.803C24.4752 32.8987 24.2388 32.9481 23.9998 32.9481H3.46794C3.22897 32.9481 2.99258 32.8987 2.7736 32.803C2.55462 32.7073 2.35779 32.5674 2.19544 32.3921C2.0331 32.2167 1.90876 32.0097 1.83022 31.784C1.75168 31.5583 1.72063 31.3188 1.73904 31.0805L3.32922 10.4047H24.1386Z" stroke="#F4F4F4" stroke-width="3.46822" stroke-linecap="round" stroke-linejoin="round"/>
</svg>
