<?xml version="1.0" encoding="utf-8"?>
<!-- Svg Vector Icons : http://www.onlinewebfonts.com/icon -->
<!DOCTYPE svg PUBLIC "-//W3C//DTD SVG 1.1//EN" "http://www.w3.org/Graphics/SVG/1.1/DTD/svg11.dtd">
<svg version="1.1" xmlns="http://www.w3.org/2000/svg" xmlns:xlink="http://www.w3.org/1999/xlink" x="0px" y="0px" viewBox="0 0 256 256" enable-background="new 0 0 256 256" xml:space="preserve">
<metadata> Svg Vector Icons : http://www.onlinewebfonts.com/icon </metadata>
<g><g><path fill="#000000" d="M122.4,178.6c0-21.7-17.6-39.3-39.3-39.3c-21.7,0-39.3,17.6-39.3,39.3c0,0-1.3,30.4-5.6,39.3C29.8,234.9,10,246,10,246h37.5c0,0,30.4-1.5,41.2-5.6c12.2-4.6,22.2-13.4,28.1-28.1c3.3-8.2,4.8-21.7,5.3-28.9C122.3,181.8,122.4,180.2,122.4,178.6z"/><path fill="#000000" d="M246,43.7c0-18.6-15.1-33.7-33.7-33.7h-5.6c-3,0-5.8,1.2-7.8,3.2c-0.8,0.5-1.5,1.1-2.2,1.8l-97.8,97.8c-3.7,3.7-4.6,9.1-2.7,13.7c16.9,3.3,30.1,16.6,33.4,33.4c4.6,1.9,10,1,13.7-2.7l97.8-97.8c0.7-0.7,1.3-1.4,1.8-2.2c2-2,3.2-4.8,3.2-7.8L246,43.7L246,43.7z"/><path fill="#000000" d="M55,83c0-6.2,5-11.2,11.2-11.2h44.9l28.1-28.1H38.1c-6.2,0-11.2,5-11.2,11.2v95.5L55,122.4V83z"/><path fill="#000000" d="M189.8,195.4c0,6.2-5,11.2-11.2,11.2h-33.7l-22.5,28.1h84.3c6.2,0,11.2-5,11.2-11.2V111.1l-28.1,28.1V195.4z"/></g></g>
</svg>